<?xml version="1.0" standalone="no"?>
<!DOCTYPE svg PUBLIC "-//W3C//DTD SVG 20010904//EN"
 "http://www.w3.org/TR/2001/REC-SVG-20010904/DTD/svg10.dtd">
<svg version="1.0" xmlns="http://www.w3.org/2000/svg"
 width="1024.000000pt" height="526.000000pt" viewBox="0 0 1024.000000 526.000000"
 preserveAspectRatio="xMidYMid meet">

<g transform="translate(0.000000,526.000000) scale(0.100000,-0.100000)"
fill="#ffffff" stroke="none">
<path d="M4137 5248 c-3 -7 -935 -1185 -2071 -2618 -1136 -1433 -2066 -2611
-2066 -2617 0 -10 106 -13 498 -13 l497 1 1230 1552 1230 1552 3 -1552 2
-1553 368 0 367 1 1230 1552 1230 1552 3 -1552 2 -1553 365 0 365 0 0 2631 0
2630 -22 -3 c-15 -2 -489 -593 -1597 -1991 l-1576 -1988 -3 1991 -2 1990 -24
0 c-13 0 -26 -6 -29 -12z"/>
<path d="M7710 4851 l0 -410 558 -4 c606 -4 590 -2 737 -64 255 -107 450 -357
494 -633 59 -363 -152 -739 -494 -883 -147 -62 -131 -60 -737 -64 l-558 -4 0
-410 0 -410 755 -974 c415 -536 755 -979 755 -985 0 -7 164 -10 511 -10 495 0
510 1 507 19 -2 10 -337 450 -746 977 -409 528 -743 963 -743 969 0 5 39 15
87 22 445 64 862 330 1122 715 320 475 370 1077 131 1596 -199 433 -597 773
-1055 902 -197 55 -262 60 -818 60 l-506 0 0 -409z"/>
</g>
</svg>
